<?xml version="1.0" encoding="UTF-8" standalone="no"?>
<!-- Created with Inkscape (http://www.inkscape.org/) -->
<svg
   xmlns:dc="http://purl.org/dc/elements/1.1/"
   xmlns:cc="http://web.resource.org/cc/"
   xmlns:rdf="http://www.w3.org/1999/02/22-rdf-syntax-ns#"
   xmlns:svg="http://www.w3.org/2000/svg"
   xmlns="http://www.w3.org/2000/svg"
   xmlns:sodipodi="http://sodipodi.sourceforge.net/DTD/sodipodi-0.dtd"
   xmlns:inkscape="http://www.inkscape.org/namespaces/inkscape"
   width="1062.6984"
   height="878.56677"
   id="svg2"
   sodipodi:version="0.32"
   inkscape:version="0.45.1"
   version="1.0"
   sodipodi:docbase="C:\Users\Jany\Documents\aYvelines"
   sodipodi:docname="Idf_Yvelines.svg"
   inkscape:output_extension="org.inkscape.output.svg.inkscape">
  <defs
     id="defs4" />
  <sodipodi:namedview
     id="base"
     pagecolor="#ffffff"
     bordercolor="#666666"
     borderopacity="1.0"
     inkscape:pageopacity="0.0"
     inkscape:pageshadow="2"
     inkscape:zoom="0.68959747"
     inkscape:cx="571.15765"
     inkscape:cy="526.63574"
     inkscape:document-units="px"
     inkscape:current-layer="layer2"
     showguides="true"
     inkscape:guide-bbox="true"
     inkscape:window-width="1152"
     inkscape:window-height="814"
     inkscape:window-x="-8"
     inkscape:window-y="-8"
     width="1100px"
     height="1050px" />
  <metadata
     id="metadata7">
    <rdf:RDF>
      <cc:Work
         rdf:about="">
        <dc:format>image/svg+xml</dc:format>
        <dc:type
           rdf:resource="http://purl.org/dc/dcmitype/StillImage" />
      </cc:Work>
    </rdf:RDF>
  </metadata>
  <g
     inkscape:groupmode="layer"
     id="layer7"
     inkscape:label="Fond couleur"
     style="display:inline"
     transform="translate(-52.487877,-186.85774)"
     sodipodi:insensitive="true">
    <path
       style="fill:none;fill-rule:evenodd;stroke:#000000;stroke-width:3;stroke-linecap:butt;stroke-linejoin:miter;stroke-miterlimit:4;stroke-dasharray:none;stroke-opacity:1;display:inline"
       d="M 250.87862,235.33399 L 251.7122,247.83766 L 238.37496,257.84059 L 236.7078,278.68003 L 238.37496,287.01581 L 230.03918,307.02167 L 233.37349,311.18956 L 216.00594,334.55151 L 218.36365,351.40078 L 207.75394,352.23436 L 206.57508,345.16122 L 195.37594,349.28722 L 181.22966,356.94979 L 167.08338,355.77093 L 162.36795,348.69779 L 161.77852,364.02293 L 149.98996,369.32779 L 138.79082,358.12865 L 138.20139,380.52693 L 150.57938,397.03092 L 138.79082,413.53492 L 139.96967,418.83977 L 160.59967,415.3032 L 162.95738,420.01863 L 154.70538,427.6812 L 162.95738,458.33148 L 171.79881,458.33148 L 187.12395,484.26633 L 180.0508,493.69718 L 194.78652,504.3069 L 194.19709,514.32718 L 202.44909,518.45318 L 194.78652,539.08317 L 195.96537,570.91231 L 215.41651,583.2903 L 193.01823,615.70887 L 205.98566,627.49744 L 203.03851,641.64372 L 209.52223,651.664 L 221.90022,652.25343 L 231.92051,674.06228 L 254.90821,682.90371 L 250.19279,702.35485 L 274.94878,706.48085 L 286.14792,723.57427 L 284.37964,737.13112 L 284.96906,755.99283 L 297.93649,778.98054 L 309.13563,775.44397 L 314.44049,795.48454 L 339.78591,800.78939 L 350.39562,787.82197 L 361.00533,796.66339 L 354.52162,823.7771 L 377.50933,826.72424 L 381.63533,855.60624 L 372.7939,866.80538 L 375.74104,873.28909 L 366.89962,892.74023 L 378.68818,906.88651 L 411.10675,907.47594 L 416.4116,900.99222 L 430.55788,900.4028 L 430.55788,897.45565 L 432.32617,892.1508 L 438.80988,898.63451 L 458.85045,897.45565 L 458.85045,888.61423 L 470.63902,888.61423 L 483.01701,869.75252 L 501.2893,875.05737 L 500.69987,898.63451 L 524.86643,890.97194 L 533.11843,878.59394 L 537.83386,874.46795 L 540.19157,879.7728 L 554.33785,892.1508 L 574.96785,891.56137 L 584.98813,903.34994 L 581.45156,914.54908 L 585.57756,930.46365 L 610.92298,931.05307 L 609.1547,939.8945 L 625.65869,942.84164 L 632.73183,969.95535 L 626.24812,991.17477 L 624.47984,998.83734 L 614.45955,992.94306 L 595.59784,1019.4673 L 599.72384,1024.7722 L 605.0287,1017.699 L 632.14241,1017.699 L 635.08955,1012.9836 L 653.95126,1012.3942 L 653.95126,1015.3413 L 672.81297,1015.3413 L 685.78039,1008.8576 L 697.56896,1021.2356 C 697.56896,1021.2356 714.66239,1019.4673 717.0201,1019.4673 C 719.37781,1019.4673 739.41838,1005.9105 739.41838,1005.9105 L 731.75581,992.35363 L 768.8898,992.35363 L 762.40609,1011.8048 L 773.0158,1017.1096 L 797.77179,997.06906 L 824.8855,992.94306 L 825.47493,978.20735 L 841.3895,969.95535 L 841.3895,962.88221 L 856.12521,956.98793 L 867.91378,936.35793 L 874.98692,929.28479 L 875.57634,916.31736 L 867.32435,913.37022 L 862.60892,889.20366 L 872.03977,876.23623 L 876.7552,856.19566 L 903.86891,863.85823 L 910.35262,850.89081 L 923.32005,844.99652 L 936.28747,843.81767 L 941.0029,849.71195 L 974.01093,849.12252 L 985.79943,837.33396 L 1025.2911,843.81767 L 1024.7017,825.54539 L 1046.5105,830.85024 L 1050.0471,813.16739 L 1037.0797,804.91539 L 1044.7422,785.46425 L 1030.5959,767.7814 L 1055.9414,758.93997 L 1054.7625,751.86683 L 1051.8154,743.61484 L 1042.9739,736.54169 L 1049.4576,728.2897 L 1061.2462,733.59455 L 1080.1079,717.67999 L 1070.0876,702.94427 L 1083.0551,689.38742 L 1091.8965,688.20856 L 1086.5916,678.77771 L 1111.9371,670.52571 L 1106.0428,659.916 L 1095.4331,657.55829 L 1098.9696,651.07457 L 1085.4128,647.538 L 1065.9616,658.73714 L 1064.7828,642.23315 L 1060.6568,639.286 L 1060.6568,628.67629 L 1071.8559,621.01372 L 1071.2665,593.90002 L 1069.4982,586.23745 L 1055.3519,585.64802 L 1055.3519,573.27002 L 1035.3114,573.27002 L 1041.2057,554.99774 L 1055.9414,552.0506 L 1055.9414,539.6726 L 1041.2057,539.08317 L 1042.9739,532.01003 L 1056.5308,534.36775 L 1077.1608,530.24175 L 1076.5714,501.94918 L 1057.1202,510.79061 L 1058.8885,499.00204 L 1048.8682,493.10776 L 1039.4374,494.28661 L 1027.6488,488.39233 L 1028.2382,480.14033 L 1022.9334,477.19319 L 1022.3439,450.07948 L 1003.4822,465.40462 L 996.40913,459.51034 L 991.10433,439.46977 L 974.01093,447.72177 L 966.34833,434.16491 L 964.58003,421.19749 L 953.97033,418.83977 L 952.79147,407.05121 L 923.90948,387.01064 L 936.28747,369.32779 L 922.73062,347.51894 L 922.73062,334.55151 L 882.06006,323.9418 L 874.98692,332.78322 L 877.34463,346.34008 L 849.64149,341.03522 L 841.97892,354.59208 L 838.44235,353.41322 L 834.31636,341.62465 L 821.93836,342.80351 L 822.52779,349.87665 L 800.12951,346.92951 L 783.03608,356.94979 L 775.96294,347.51894 L 767.71094,347.51894 L 758.86952,338.67751 L 743.54438,348.10836 L 747.08095,354.00265 L 728.80867,362.84407 L 720.55667,349.28722 L 710.53639,361.66522 L 696.97953,339.26694 L 679.29668,332.1938 L 659.25611,349.28722 L 642.16269,330.42551 L 642.16269,321.58408 L 633.91069,321.58408 L 632.73183,335.14094 L 613.2807,331.01494 L 618.58555,322.17351 L 597.36613,306.25895 L 589.11413,314.51094 L 589.11413,302.13295 L 580.2727,298.59638 L 566.12642,299.1858 L 559.64271,293.29152 L 551.98014,299.1858 L 535.47614,275.60867 L 526.04529,276.1981 L 516.61443,295.05981 L 501.87872,298.00695 L 488.32187,300.36466 L 494.21615,290.93381 L 487.14301,279.73467 L 464.74473,292.70209 L 461.20816,288.57609 L 461.20816,280.91352 L 455.90331,275.01924 L 431.73674,272.66153 L 428.7896,262.05181 L 422.30589,259.10467 L 399.31818,272.0721 L 384.58247,283.86067 L 373.97276,277.37695 L 359.82647,288.57609 L 354.52162,284.45009 L 335.07048,292.11266 L 330.94448,285.03952 L 314.44049,287.98666 L 296.1682,275.60867 L 284.96906,275.01924 L 277.30649,280.91352 L 269.0545,278.55581 L 259.03421,263.23067 L 266.10735,254.38924 L 267.28621,246.72667 L 257.85536,243.1901 L 257.85536,237.29582 L 250.87862,235.33399 z "
       id="path16590"
       sodipodi:nodetypes="ccccccccccccccccccccccccccccccccccccccccccccccccccccccccccccccccccccccccccccccccccccccccccccccccccsccccccccccccccccccccccccccccccccccccccccccccccccccccccccccccccccccccccccccccccccccccccccccccccccccccccccccccccccccccccccccccccccccccccccccccccccccccccccc" />
    <path
       id="path16616"
       style="fill:#cdffee;fill-opacity:0.96341463;fill-rule:evenodd;stroke:#000000;stroke-width:2;stroke-linecap:butt;stroke-linejoin:miter;stroke-miterlimit:4;stroke-opacity:1;display:inline"
       d="M 659.25612,349.28722 L 642.16269,330.42551 L 642.16269,321.58408 L 633.91069,321.58408 L 632.73183,335.14094 L 613.2807,331.01494 L 618.58555,322.17351 L 597.36613,306.25895 L 589.11413,314.51094 L 589.11413,302.13295 L 580.2727,298.59638 L 566.12642,299.1858 L 559.64271,293.29152 L 551.98014,299.1858 L 535.47614,275.60867 L 526.04529,276.1981 L 516.61443,295.05981 L 501.87872,298.00695 L 488.32187,300.36466 L 494.21615,290.93381 L 487.14301,279.73467 L 464.74473,292.70209 L 461.20816,288.57609 L 461.20816,280.91352 L 455.90331,275.01924 L 431.73674,272.66153 L 428.7896,262.05181 L 422.30589,259.10467 L 399.31818,272.0721 L 384.58247,283.86067 L 373.97276,277.37695 L 359.82647,288.57609 L 354.52162,284.45009 L 335.07048,292.11266 L 330.94448,285.03952 L 314.44049,287.98666 L 296.1682,275.60867 L 284.96906,275.01924 L 277.30649,280.91352 L 269.0545,278.55581 L 259.03421,263.23067 L 266.10735,254.38924 L 267.28621,246.72667 L 257.85536,243.1901 L 257.85536,237.29582 L 250.87862,235.33399 L 251.7122,247.83766 L 238.37496,257.84059 L 236.7078,278.68003 L 238.37496,287.01581 L 230.03918,307.02167 L 233.37349,311.18956 L 216.00594,334.55151 L 218.38153,351.41866 C 233.717,345.05846 251.14945,353.33344 248.4245,365.79122 L 254.90821,369.91722 L 266.69678,369.91722 L 270.23335,371.6855 L 279.07478,361.66522 L 283.79021,365.79122 L 292.04221,365.79122 L 292.04221,358.12865 L 308.5462,351.05551 L 317.38763,363.4335 L 325.0502,366.38064 L 321.51363,385.24235 L 327.99734,395.85207 L 335.07048,394.08378 L 335.07048,382.29521 L 346.26962,374.04321 L 358.05819,389.36835 L 372.7939,386.42121 L 375.15161,395.85207 L 376.9199,397.62035 L 385.76132,393.49435 L 398.13932,408.23006 L 413.46446,405.28292 L 423.48474,405.28292 L 428.20017,394.67321 L 439.39931,399.97806 L 443.52531,395.85207 L 445.2936,404.10406 L 444.70417,412.35606 C 471.33345,414.21349 473.25415,428.05977 470.04959,437.70148 L 481.24873,438.29091 L 481.83816,462.45748 L 475.77124,469.99798 C 485.04698,469.33371 500.00367,447.2669 520.74043,441.82748 L 520.74043,435.34377 L 527.22415,429.44949 L 537.24443,437.70148 L 543.13871,437.70148 L 546.08586,429.44949 L 551.98014,428.86006 L 553.159,424.14463 L 564.35814,425.32349 L 577.91499,436.52263 L 584.98813,434.16491 L 593.82956,438.29091 L 598.54499,437.70148 L 606.79698,426.50234 L 613.2807,424.73406 L 630.96355,413.53492 L 636.2684,401.15692 L 645.10983,401.15692 L 645.49087,396.06046 L 638.03669,395.85207 L 636.85783,388.77892 L 647.46754,387.01064 L 655.13011,371.6855 L 660.43497,371.6855 L 660.43497,364.61236 L 651.59354,364.02293 L 652.7724,360.48636 L 659.25612,349.28722 z "
       sodipodi:nodetypes="ccccccccccccccccccccccccccccccccccccccccccccccccccccccccccccccccccccccccccccccccccccccccccccccccccccccccccccccccccc" />
    <path
       id="path16598"
       style="fill:#aaffee;fill-opacity:1;fill-rule:evenodd;stroke:#000000;stroke-width:2;stroke-linecap:butt;stroke-linejoin:miter;stroke-miterlimit:4;stroke-opacity:1;display:inline"
       d="M 350.10091,787.52725 L 339.78591,800.78939 L 314.44049,795.48454 L 309.13563,775.44397 L 297.93649,778.98054 L 284.96906,755.99283 L 284.37964,737.13112 L 286.14792,723.57427 L 274.94878,706.48085 L 250.19279,702.35485 L 254.90821,682.90371 L 231.92051,674.06228 L 221.90022,652.25343 L 209.52223,651.664 L 203.03851,641.64372 L 205.98566,627.49744 L 193.01823,615.70887 L 215.41651,583.2903 L 195.96537,570.91231 L 194.78652,539.08317 L 202.44909,518.45318 L 194.19709,514.32718 L 194.78652,504.3069 L 180.0508,493.69718 L 187.12395,484.26633 L 171.79881,458.33148 L 162.95738,458.33148 L 154.70538,427.6812 L 162.95738,420.01863 L 160.59967,415.3032 L 139.96967,418.83977 L 138.79082,413.53492 L 150.57938,397.03092 L 138.20139,380.52693 L 138.79082,358.12865 L 149.98996,369.32779 L 161.77852,364.02293 L 162.36795,348.69779 L 167.08338,355.77093 L 181.22966,356.94979 L 195.37594,349.28722 L 206.57508,345.16122 L 207.75394,352.23436 L 218.3994,351.43654 C 233.717,345.05846 251.14945,353.33344 248.4245,365.79122 L 254.90821,369.91722 L 266.69678,369.91722 L 270.23335,371.6855 L 279.07478,361.66522 L 283.79021,365.79122 L 292.04221,365.79122 L 292.04221,358.12865 L 308.5462,351.05551 L 317.38763,363.4335 L 325.0502,366.38064 L 321.51363,385.24235 L 327.99734,395.85207 L 335.07048,394.08378 L 335.07048,382.29521 L 346.26962,374.04321 L 358.05819,389.36835 L 372.7939,386.42121 L 375.15161,395.85207 L 376.9199,397.62035 L 385.76132,393.49435 L 398.13932,408.23006 L 413.46446,405.28292 L 423.48474,405.28292 L 428.20017,394.67321 L 439.39931,399.97806 L 443.52531,395.85207 L 445.2936,404.10406 L 444.70417,412.35606 C 471.33345,414.21349 473.25415,428.05977 470.04959,437.70148 L 481.24873,438.29091 L 481.83816,462.45748 L 476.18803,469.8759 C 471.44302,468.6755 464.48584,479.72823 457.67159,496.64433 L 455.90331,529.65232 L 468.2813,534.36775 L 474.76502,548.51403 L 483.60644,550.28231 L 484.19587,553.81888 L 491.26901,556.76603 L 491.85844,562.66031 L 487.73244,564.4286 L 484.7853,567.96517 L 482.42759,566.19688 L 478.89102,566.19688 L 478.30159,575.03831 L 475.35445,579.16431 L 466.51302,575.62774 L 462.38702,582.70088 L 457.67159,579.16431 L 447.65131,588.59516 L 439.39931,588.59516 L 435.86274,594.48944 L 441.1676,606.86744 L 431.73674,621.01372 L 427.61074,621.01372 L 424.07417,628.08686 L 408.74903,626.31858 L 402.85475,643.412 L 391.65561,645.18029 L 391.65561,653.43229 L 396.37104,658.73714 L 403.44418,658.73714 L 404.62303,671.70457 L 414.64332,678.18828 L 411.10675,685.26142 L 404.62303,685.26142 L 403.44418,689.97685 L 407.57018,695.87113 L 398.72875,702.94427 L 395.19218,710.01742 L 397.54989,715.9117 L 395.19218,719.44827 L 390.47675,718.85884 L 386.35075,720.62713 L 384.58247,717.09056 L 382.81418,719.44827 L 376.9199,720.0377 L 373.38333,715.32227 L 363.95247,715.9117 L 362.77362,713.55399 L 359.23705,713.55399 L 356.2899,716.50113 L 356.2899,722.98484 L 363.95247,730.64741 L 367.48904,733.59455 L 368.07847,739.48884 L 347.44848,771.9074 L 350.10091,787.52725 z "
       sodipodi:nodetypes="ccccccccccccccccccccccccccccccccccccccccccccccccccccccccccccccccccccccccccccccccccccccccccccccccccccccccccccccccccccccccccccccccccccc" />
    <path
       id="path16596"
       style="fill:#edd0c9;fill-opacity:1;fill-rule:evenodd;stroke:#000000;stroke-width:2;stroke-linecap:butt;stroke-linejoin:miter;stroke-miterlimit:4;stroke-opacity:1;display:inline"
       d="M 537.53914,474.24605 L 533.11843,465.99405 C 557.19567,446.97022 532.96606,437.94195 520.61836,442.15794 C 499.79528,447.47529 484.21341,469.95889 475.97964,469.91166 C 469.60487,469.51117 461.84678,485.95106 457.67159,496.64433 L 455.90331,529.65232 L 468.2813,534.36775 L 474.76502,548.51403 L 483.60644,550.28231 L 484.19587,553.81888 L 491.26901,556.76603 L 491.77211,562.66031 L 494.80558,565.01802 L 495.39501,569.14402 L 500.69987,574.44888 L 511.89901,574.44888 L 521.91929,583.2903 L 517.20386,586.82688 L 517.20386,590.95287 L 520.74043,591.5423 L 526.04529,588.00573 L 526.63472,596.25773 L 532.529,596.25773 L 533.11843,586.23745 L 536.655,580.34316 L 533.11843,577.39602 L 537.24443,563.83917 L 538.42329,556.76603 L 536.06557,554.40831 L 536.06557,544.97746 L 539.7495,536.87282 L 518.97215,527.88403 L 504.23644,517.27432 L 504.23644,512.55889 L 490.67958,510.20118 L 501.87872,490.75004 L 517.20386,489.57119 L 529.58186,476.60376 L 537.83386,474.24605"
       sodipodi:nodetypes="ccccccccccccccccccccccccccccccccccccccc" />
    <path
       style="fill:#e8aa58;fill-opacity:1;fill-rule:evenodd;stroke:#000000;stroke-width:2;stroke-linecap:butt;stroke-linejoin:miter;stroke-miterlimit:4;stroke-dasharray:none;stroke-opacity:1;display:inline"
       d="M 517.20386,489.57119 L 501.87872,490.75004 L 490.67958,510.20118 L 504.23644,512.55889 L 504.23644,517.27432 L 518.97215,527.88403 L 539.60214,536.72546 L 559.05328,537.31489 L 575.55728,527.2946 L 579.09385,530.24175 L 599.72384,533.77832 L 605.61813,522.57918 L 605.61813,519.04261 L 600.9027,515.50604 L 584.98813,515.50604 L 584.3987,523.16861 L 579.09385,523.16861 L 579.09385,520.81089 L 580.86213,498.41261 L 571.43128,480.72976 L 569.66299,473.65662 L 537.83386,474.24605 L 529.58186,476.60376 L 517.20386,489.57119 z "
       id="path16594" />
    <path
       id="path16600"
       style="fill:#cdffee;fill-opacity:0.96341463;fill-rule:evenodd;stroke:#000000;stroke-width:2;stroke-linecap:butt;stroke-linejoin:miter;stroke-miterlimit:4;stroke-opacity:1;display:inline"
       d="M 491.77211,562.66031 L 494.80558,565.01802 L 495.39501,569.14402 L 500.69987,574.44888 L 511.89901,574.44888 L 521.91929,583.2903 L 517.20386,586.82688 L 517.20386,590.95287 L 520.74043,591.5423 L 526.04529,588.00573 L 526.63472,596.25773 L 532.529,596.25773 L 533.11843,586.23745 L 536.50764,580.34316 L 541.95986,580.34316 L 545.49643,585.64802 L 556.10614,585.64802 L 559.64271,589.18459 L 560.23214,604.80444 L 562.58985,603.03616 L 568.48414,602.74144 L 571.80603,600.44101 L 578.05786,600.44101 L 579.72502,603.77532 L 590.97831,603.77532 L 593.47905,606.27606 L 596.81336,606.27606 L 597.64694,600.8578 L 623.07105,591.27166 L 628.9061,606.27606 L 631.82362,608.36 L 632.24041,614.61183 L 635.57472,619.19651 L 639.74261,620.03009 L 642.24334,623.78119 L 655.58058,622.94761 L 657.24774,629.19944 L 653.91343,631.28339 L 653.91343,638.3688 L 649.32875,637.95201 L 646.82802,633.78412 L 644.74407,632.95054 L 634.74114,646.70457 L 639.74261,652.12283 L 639.32582,657.1243 L 637.24188,662.12576 L 630.15647,663.37613 L 630.15647,671.29512 L 638.49224,678.79731 L 639.74261,688.80025 L 629.32289,697.55281 L 629.73968,711.72363 L 618.48638,723.81051 L 618.90317,726.72803 L 621.82069,726.72803 L 621.82069,732.56307 L 619.31996,734.64702 L 618.48638,738.81491 L 615.56886,740.48206 L 617.23601,744.23316 L 623.90463,744.23316 L 624.32142,749.65142 L 626.82215,751.73536 L 626.40537,757.5704 L 623.90463,762.57187 L 621.82069,763.40545 L 622.65427,766.73976 L 618.90317,766.73976 L 621.82069,787.16241 L 622.23748,806.75149 L 625.98858,808.00185 L 634.74114,816.33763 L 640.57619,825.0902 L 634.74114,825.0902 L 632.6572,823.42304 L 628.9061,823.00625 L 623.07105,829.67487 L 620.98711,832.17561 L 618.90317,830.50845 L 610.1506,830.50845 L 608.48345,835.09313 L 613.9017,840.09459 L 607.23308,845.51285 L 598.06372,845.51285 L 598.06372,848.84716 L 592.64547,851.76468 L 589.72795,854.26541 L 595.1462,858.85009 L 594.72941,860.93404 L 590.56153,860.93404 L 589.72795,872.60412 L 573.88997,872.18733 L 569.72208,878.85596 L 575.14034,885.52458 L 574.9499,891.61679 L 554.33785,892.1508 L 540.19157,879.7728 L 537.83386,874.46795 L 533.11843,878.59394 L 524.86643,890.97194 L 500.69987,898.63451 L 501.2893,875.05737 L 483.01701,869.75252 L 470.63902,888.61423 L 458.85045,888.61423 L 458.85045,897.45565 L 438.80988,898.63451 L 432.32617,892.1508 L 430.55788,897.45565 L 430.55788,900.4028 L 416.4116,900.99222 L 411.10675,907.47594 L 378.68818,906.88651 L 366.89962,892.74023 L 375.74104,873.28909 L 372.7939,866.80538 L 381.63533,855.60624 L 377.50933,826.72424 L 354.52162,823.7771 L 361.00533,796.66339 L 350.24827,787.67461 L 347.44848,771.9074 L 368.07847,739.48884 L 367.48904,733.59455 L 363.95247,730.64741 L 356.2899,722.98484 L 356.2899,716.50113 L 359.23705,713.55399 L 362.77362,713.55399 L 363.95247,715.9117 L 373.38333,715.32227 L 376.9199,720.0377 L 382.81418,719.44827 L 384.58247,717.09056 L 386.35075,720.62713 L 390.47675,718.85884 L 395.19218,719.44827 L 397.54989,715.9117 L 395.19218,710.01742 L 398.72875,702.94427 L 407.57018,695.87113 L 403.44418,689.97685 L 404.62303,685.26142 L 411.10675,685.26142 L 414.64332,678.18828 L 404.62303,671.70457 L 403.44418,658.73714 L 396.37104,658.73714 L 391.65561,653.43229 L 391.65561,645.18029 L 402.85475,643.412 L 408.74903,626.31858 L 424.07417,628.08686 L 427.61074,621.01372 L 431.73674,621.01372 L 441.1676,606.86744 L 435.86274,594.48944 L 439.39931,588.59516 L 447.65131,588.59516 L 457.67159,579.16431 L 462.38702,582.70088 L 466.51302,575.62774 L 475.35445,579.16431 L 478.30159,575.03831 L 478.89102,566.19688 L 482.42759,566.19688 L 484.7853,567.96517 L 487.73244,564.4286 L 491.85844,562.66031"
       sodipodi:nodetypes="ccccccccccccccccccccccccccccccccccccccccccccccccccccccccccccccccccccccccccccccccccccccccccccccccccccccccccccccccccccccccccccccccccccccccccccccccccccccccccccccccccccccccc" />
    <path
       id="path16604"
       style="fill:#cdffee;fill-opacity:0.96341463;fill-rule:evenodd;stroke:#000000;stroke-width:2;stroke-linecap:butt;stroke-linejoin:miter;stroke-miterlimit:4;stroke-opacity:1;display:inline"
       d="M 574.95888,891.58908 L 575.14034,885.52458 L 569.72208,878.85596 L 573.88997,872.18733 L 589.72795,872.60412 L 590.56153,860.93404 L 594.72941,860.93404 L 595.1462,858.85009 L 589.72795,854.26541 L 592.64547,851.76468 L 598.06372,848.84716 L 598.06372,845.51285 L 607.23308,845.51285 L 613.9017,840.09459 L 608.48345,835.09313 L 610.1506,830.50845 L 618.90317,830.50845 L 620.98711,832.17561 L 623.07105,829.67487 L 628.9061,823.00625 L 632.6572,823.42304 L 634.74114,825.0902 L 640.57619,825.0902 L 634.74114,816.33763 L 625.98858,808.00185 L 622.23748,806.75149 L 621.82069,787.16241 L 618.90317,766.73976 L 622.65427,766.73976 L 621.82069,763.40545 L 623.90463,762.57187 L 626.40537,757.5704 L 626.82215,751.73536 L 624.32142,749.65142 L 623.90463,744.23316 L 617.23601,744.23316 L 615.56886,740.48206 L 618.48638,738.81491 L 619.31996,734.64702 L 621.82069,732.56307 L 621.82069,726.72803 L 618.90317,726.72803 L 618.48638,723.81051 L 629.73968,711.72363 L 629.32289,697.55281 L 639.74261,688.80025 L 638.49224,678.79731 L 630.15647,671.29512 L 630.15647,663.37613 L 637.24188,662.12576 L 639.32582,657.1243 L 639.74261,652.12283 L 634.74114,646.70457 L 644.74407,632.95054 L 646.82802,633.78412 L 649.32875,637.95201 L 653.91343,638.3688 L 653.91343,631.28339 L 657.24774,629.19944 L 655.47639,622.84342 L 655.1638,617.11257 L 650.16233,612.94468 L 662.66599,595.02276 L 662.66599,591.27166 L 658.49811,590.43808 L 658.91489,586.27019 L 665.58352,581.68552 L 663.49957,574.60011 L 670.58498,574.18332 L 666.00031,566.68112 L 658.49811,566.68112 L 659.74847,556.2614 L 663.49957,553.34388 L 664.74994,545.42489 L 663.30728,537.25844 L 662.79268,527.88403 L 659.25611,523.75803 L 656.30897,515.50604 L 654.54069,507.25404 L 659.25611,507.25404 L 659.25611,501.35975 L 651.59354,501.35975 L 651.00412,487.21347 L 647.46754,486.03461 L 659.25611,480.72976 L 658.66668,461.27862 L 668.09754,453.02662 C 668.09754,453.02662 668.09754,454.79491 668.09754,447.72177 C 668.09754,440.64863 663.38211,447.72177 663.38211,447.72177 L 659.84554,437.11206 L 649.23583,419.4292 L 655.71954,417.07149 L 657.48783,411.76663 L 650.41469,396.44149 L 645.55191,395.99942 L 638.03669,395.85207 L 636.85783,388.77892 L 647.46754,387.01064 L 655.13011,371.6855 L 660.43497,371.6855 L 660.43497,364.61236 L 651.59354,364.02293 L 652.7724,360.48636 L 659.25611,349.28723 L 679.29668,332.1938 L 696.97953,339.26694 L 710.53639,361.66522 L 720.55667,349.28722 L 728.80867,362.84407 L 747.08095,354.00265 L 743.54438,348.10836 L 758.86952,338.67751 L 767.71094,347.51894 L 775.96294,347.51894 L 783.03608,356.94979 L 800.12951,346.92951 L 822.52779,349.87665 L 821.93836,342.80351 L 834.31636,341.62465 L 838.44235,353.41322 L 841.97892,354.59208 L 849.64149,341.03522 L 877.34463,346.34008 L 874.98692,332.78322 L 882.06006,323.9418 L 922.73062,334.55151 L 922.73062,347.51894 L 936.28747,369.32779 L 923.90948,387.01064 L 952.79147,407.05121 L 953.97033,418.83977 L 964.58004,421.19749 L 966.34832,434.16491 L 974.01089,447.72177 L 991.10432,439.46977 L 996.40918,459.51034 L 1003.4823,465.40462 L 1022.344,450.07948 L 1022.9335,477.19319 L 1028.2383,480.14033 L 1027.6489,488.39233 L 1039.4375,494.28661 L 1048.8683,493.10776 L 1058.8886,499.00204 L 1057.1203,510.79061 L 1076.5715,501.94918 L 1077.1609,530.24175 L 1056.5309,534.36775 L 1042.974,532.01003 L 1041.2058,539.08317 L 1055.9415,539.6726 L 1055.9415,552.0506 L 1041.2058,554.99774 L 1035.3115,573.27002 L 1055.352,573.27002 L 1055.352,585.64802 L 1069.4983,586.23745 L 1071.2666,593.90002 L 1071.856,621.01372 L 1060.6569,628.67629 L 1060.6569,639.286 L 1064.7829,642.23315 L 1065.9617,658.73714 L 1085.4129,647.538 L 1098.9697,651.07457 L 1095.4332,657.55829 L 1106.0429,659.916 L 1111.9372,670.52571 L 1086.5917,678.77771 L 1091.8966,688.20856 L 1083.0552,689.38742 L 1070.0877,702.94427 L 1080.108,717.67999 L 1061.2463,733.59455 L 1049.4577,728.2897 L 1042.974,736.54169 L 1051.8155,743.61484 L 1054.7626,751.86683 L 1055.9415,758.93997 L 1030.596,767.7814 L 1044.7423,785.46425 L 1037.0798,804.91539 L 1050.0472,813.16739 L 1046.5106,830.85024 L 1024.7018,825.54539 L 1025.2912,843.81767 L 985.79946,837.33396 L 974.01089,849.12252 L 941.0029,849.71195 L 936.28747,843.81767 L 923.32005,844.99652 L 910.35262,850.89081 L 903.86891,863.85823 L 876.7552,856.19566 L 872.03977,876.23623 L 862.60892,889.20366 L 867.32435,913.37022 L 875.57634,916.31736 L 874.98692,929.28479 L 867.91378,936.35793 L 856.12521,956.98793 L 841.3895,962.88221 L 841.3895,969.95535 L 825.47493,978.20735 L 824.8855,992.94306 L 797.77179,997.06906 L 773.0158,1017.1096 L 762.40609,1011.8048 L 768.8898,992.35363 L 731.75581,992.35363 L 739.41838,1005.9105 C 739.41838,1005.9105 719.37781,1019.4673 717.0201,1019.4673 C 714.66239,1019.4673 697.56896,1021.2356 697.56896,1021.2356 L 685.78039,1008.8576 L 672.81297,1015.3413 L 653.95126,1015.3413 L 653.95126,1012.3942 L 635.08955,1012.9836 L 632.14241,1017.6991 L 605.0287,1017.6991 L 599.72384,1024.7722 L 595.59784,1019.4673 L 614.45955,992.94306 L 624.47984,998.83734 L 626.24812,991.17477 L 632.73183,969.95535 L 625.65869,942.84164 L 609.1547,939.8945 L 610.92298,931.05307 L 585.57756,930.46365 L 581.45156,914.54908 L 584.98813,903.34994 L 574.95888,891.58908 z "
       sodipodi:nodetypes="cccccccccccccccccccccccccccccccccccccccccccccccccccccccccccccccccccccccccccccccccccccccscccccccccccccccccccccccccccccccccccccccccccccccccccccccccccccccccccccccccccccccccccccccccccccccccccccccccccccccccccccccccccsccccccccccccccccccccc" />
    <path
       id="path16588"
       style="fill:#edd0c9;fill-opacity:1;fill-rule:evenodd;stroke:#000000;stroke-width:2;stroke-linecap:butt;stroke-linejoin:miter;stroke-miterlimit:4;stroke-opacity:1;display:inline"
       d="M 520.74043,435.34377 L 520.91307,442.07163 C 533.17445,437.73356 557.19567,446.97022 533.11843,465.99405 L 537.53914,474.24605 L 569.66299,473.65662 L 571.43128,480.72976 L 580.86213,498.41261 L 579.87776,511.92749 L 589.70356,512.55889 L 592.6507,508.43289 C 592.6507,508.43289 595.00842,508.43289 597.95556,508.43289 L 600.9027,503.12804 L 610.92298,503.12804 L 616.81727,501.94918 L 621.53269,506.07518 L 631.55298,513.73775 L 635.08955,513.14832 L 642.75212,520.22146 L 643.93097,524.93689 L 649.23583,527.88403 L 651.00412,533.18889 L 663.38211,537.31489 L 662.79268,527.88403 L 659.25611,523.75803 L 656.30897,515.50604 L 654.54069,507.25404 L 659.25611,507.25404 L 659.25611,501.35975 L 651.59354,501.35975 L 651.00412,487.21347 L 647.46754,486.03461 L 659.25611,480.72976 L 658.66668,461.27862 L 668.09754,453.02662 C 668.09754,453.02662 668.09754,454.79491 668.09754,447.72177 C 668.09754,440.64863 663.38211,447.72177 663.38211,447.72177 L 659.84554,437.11206 L 649.23583,419.4292 L 655.71954,417.07149 L 657.48783,411.76663 L 650.41469,396.44149 L 645.69926,396.44149 L 644.60418,400.74013 L 635.533,402.00506 L 630.96355,413.53492 L 613.2807,424.73406 L 606.79698,426.50234 L 598.54499,437.70148 L 593.82956,438.29091 L 584.98813,434.16491 L 577.91499,436.52263 L 564.35814,425.32349 L 553.159,424.14463 L 551.98014,428.86006 L 546.08586,429.44949 L 543.13871,437.70148 L 537.24443,437.70148 L 527.22415,429.44949 L 520.74043,435.34377 z "
       sodipodi:nodetypes="ccccccccccccccccccccccccccccccccccscccccccccccccccccccccccc" />
    <path
       id="path16629"
       style="fill:#edd0c9;fill-opacity:1;fill-rule:evenodd;stroke:#000000;stroke-width:2;stroke-linecap:butt;stroke-linejoin:miter;stroke-miterlimit:4;stroke-opacity:1;display:inline"
       d="M 655.37219,622.73922 L 642.24334,623.78119 L 639.74261,620.03009 L 635.57472,619.19651 L 632.24041,614.61183 L 631.82362,608.36 L 628.9061,606.27606 L 623.07105,591.27166 L 597.64694,600.8578 L 596.81336,606.27606 L 593.47905,606.27606 L 590.97831,603.77532 L 579.72502,603.77532 L 578.05786,600.44101 L 571.80603,600.44101 L 568.48414,602.74144 L 562.58985,603.03616 L 560.23214,604.80444 L 559.64271,589.18459 L 556.10614,585.64802 L 545.49643,585.64802 L 541.95986,580.34316 L 536.58132,580.34316 L 533.11843,577.39602 L 537.24443,563.83917 L 538.42329,556.76603 L 536.06557,554.40831 L 536.06557,544.97746 L 539.67582,536.79914 L 559.05328,537.31489 L 575.55728,527.2946 L 579.09385,530.24175 L 599.72384,533.77832 L 605.61813,522.57918 L 605.61813,519.04261 L 600.9027,515.50604 L 584.98813,515.50604 L 584.3987,523.16861 L 579.09385,523.16861 L 579.09385,520.81089 L 579.8302,512.00692 L 589.70356,512.55889 L 592.6507,508.43289 C 592.6507,508.43289 595.00842,508.43289 597.95556,508.43289 L 600.9027,503.12804 L 610.92298,503.12804 L 616.81727,501.94918 L 621.53269,506.07518 L 631.55298,513.73775 L 635.08955,513.14832 L 642.75212,520.22146 L 643.93097,524.93689 L 649.23583,527.88403 L 651.00412,533.18889 L 663.23244,537.202 L 664.74994,545.42489 L 663.49957,553.34388 L 659.74847,556.2614 L 658.49811,566.68112 L 666.00031,566.68112 L 670.58498,574.18332 L 663.49957,574.60011 L 665.58352,581.68552 L 658.91489,586.27019 L 658.49811,590.43808 L 662.66599,591.27166 L 662.66599,595.02276 L 650.16233,612.94468 L 655.1638,617.11257 L 655.37219,622.73922 z "
       sodipodi:nodetypes="cccccccccccccccccccccccccccccccccccccccccccccccccccccccccccccccccccccc" />
    <path
       id="path3469"
       style="fill:none;fill-opacity:1;fill-rule:evenodd;stroke:none;stroke-width:2;stroke-linecap:butt;stroke-linejoin:miter;stroke-miterlimit:4;stroke-opacity:1"
       d="M 659.25612,349.28723 L 679.29668,332.1938 L 696.97953,339.26694 L 710.53639,361.66522 L 720.55667,349.28722 L 728.80867,362.84407 L 747.08095,354.00265 L 743.54438,348.10836 L 758.86952,338.67751 L 767.71094,347.51894 L 775.96294,347.51894 L 783.03608,356.94979 L 800.12951,346.92951 L 822.52779,349.87665 L 821.93836,342.80351 L 834.31636,341.62465 L 838.44235,353.41322 L 841.97892,354.59208 L 849.64149,341.03522 L 877.34463,346.34008 L 874.98692,332.78322 L 882.06006,323.9418 L 922.73062,334.55151 L 922.73062,347.51894 L 936.28747,369.32779 L 923.90948,387.01064 L 952.79147,407.05121 L 953.97033,418.83977 L 964.58004,421.19749 L 966.34832,434.16491 L 974.01089,447.72177 L 991.10432,439.46977 L 996.40918,459.51034 L 1003.4822,465.40462 L 1022.344,450.07948 L 1022.9334,477.19319 L 1028.2383,480.14033 L 1027.6489,488.39233 L 1039.4375,494.28661 L 1048.8682,493.10776 L 1058.8886,499.00204 L 1057.1203,510.79061 L 1076.5148,501.65407 L 1111.6144,481.43708 L 1111.7565,189.29697 L 283.53823,188.32185 L 297.16128,201.35896 L 297.16128,216.59333 L 278.41128,221.28083 L 272.55191,210.73396 L 258.48941,202.53083 L 245.59878,213.07771 L 250.87542,235.63163 L 257.85536,237.29582 L 257.85536,243.1901 L 267.28621,246.72667 L 266.10735,254.38924 L 259.03421,263.23067 L 269.0545,278.55581 L 277.30649,280.91352 L 284.96906,275.01924 L 296.1682,275.60867 L 314.44049,287.98666 L 330.94448,285.03952 L 335.07048,292.11266 L 354.52162,284.45009 L 359.82647,288.57609 L 373.97276,277.37695 L 384.58247,283.86067 L 399.31818,272.0721 L 422.30589,259.10467 L 428.7896,262.05181 L 431.73674,272.66153 L 455.90331,275.01924 L 461.20816,280.91352 L 461.20816,288.57609 L 464.74473,292.70209 L 487.14301,279.73467 L 494.21615,290.93381 L 488.32187,300.36466 L 501.87872,298.00695 L 516.61443,295.05981 L 526.04529,276.1981 L 535.47614,275.60867 L 551.98014,299.1858 L 559.64271,293.29152 L 566.12642,299.1858 L 580.2727,298.59638 L 589.11413,302.13295 L 589.11413,314.51094 L 597.36613,306.25895 L 618.58555,322.17351 L 613.2807,331.01494 L 632.73183,335.14094 L 633.91069,321.58408 L 642.16269,321.58408 L 642.16269,330.42551 L 659.25612,349.28723 z "
       sodipodi:nodetypes="cccccccccccccccccccccccccccccccccccccccccccccccccccccccccccccccccccccccccccccccccccccccccccccccccc" />
    <path
       id="path6393"
       style="fill:none;fill-opacity:1;fill-rule:evenodd;stroke:#000000;stroke-width:2;stroke-linecap:butt;stroke-linejoin:miter;stroke-miterlimit:4;stroke-opacity:1;display:inline"
       d="M 283.53823,188.32185 L 297.16128,201.35896 L 297.16128,216.59333 L 278.41128,221.28083 L 272.55191,210.73396 L 258.48941,202.53083 L 245.59878,213.07771 L 250.87542,235.63163 L 257.85536,237.29582 L 257.85536,243.1901 L 267.28621,246.72667 L 266.10735,254.38924 L 259.03421,263.23067 L 269.0545,278.55581 L 277.30649,280.91352 L 284.96906,275.01924 L 296.1682,275.60867 L 314.44049,287.98666 L 330.94448,285.03952 L 335.07048,292.11266 L 354.52162,284.45009 L 359.82647,288.57609 L 373.97276,277.37695 L 384.58247,283.86067 L 399.31818,272.0721 L 422.30589,259.10467 L 428.7896,262.05181 L 431.73674,272.66153 L 455.90331,275.01924 L 461.20816,280.91352 L 461.20816,288.57609 L 464.74473,292.70209 L 487.14301,279.73467 L 494.21615,290.93381 L 488.32187,300.36466 L 501.87872,298.00695 L 516.61443,295.05981 L 526.04529,276.1981 L 535.47614,275.60867 L 551.98014,299.1858 L 559.64271,293.29152 L 566.12642,299.1858 L 580.2727,298.59638 L 589.11413,302.13295 L 589.11413,314.51094 L 597.36613,306.25895 L 618.58555,322.17351 L 613.2807,331.01494 L 632.73183,335.14094 L 633.91069,321.58408 L 642.16269,321.58408 L 642.16269,330.42551 L 659.25612,349.28723 L 679.29668,332.1938 L 696.97953,339.26694 L 710.53639,361.66522 L 720.55667,349.28722 L 728.80867,362.84407 L 747.08095,354.00265 L 743.54438,348.10836 L 758.86952,338.67751 L 767.71094,347.51894 L 775.96294,347.51894 L 783.03608,356.94979 L 800.12951,346.92951 L 822.52779,349.87665 L 821.93836,342.80351 L 834.31636,341.62465 L 838.44235,353.41322 L 841.97892,354.59208 L 849.64149,341.03522 L 877.34463,346.34008 L 874.98692,332.78322 L 882.06006,323.9418 L 922.73062,334.55151 L 922.73062,347.51894 L 936.28747,369.32779 L 923.90948,387.01064 L 952.79147,407.05121 L 953.97033,418.83977 L 964.58004,421.19749 L 966.34832,434.16491 L 974.01089,447.72177 L 991.10432,439.46977 L 996.40918,459.51034 L 1003.4822,465.40462 L 1022.344,450.07948 L 1022.9334,477.19319 L 1028.2383,480.14033 L 1027.6489,488.39233 L 1039.4375,494.28661 L 1048.8682,493.10776 L 1058.8886,499.00204 L 1057.1203,510.79061 L 1076.5148,501.65407 L 1111.6144,481.43708"
       sodipodi:nodetypes="cccccccccccccccccccccccccccccccccccccccccccccccccccccccccccccccccccccccccccccccccccccccccccccccc" />
  </g>
  <g
     inkscape:groupmode="layer"
     id="layer5"
     inkscape:label="Rivières"
     style="display:inline"
     transform="translate(-52.487877,-186.85774)"
     sodipodi:insensitive="true">
    <g
       id="g6245"
       transform="translate(-5.029715,28.125)">
      <path
         sodipodi:nodetypes="ccccccccccccccccccccccccccscccccccccccccccccccccccccccccccsc"
         id="path18662"
         d="M 60.017592,231.38275 C 68.925551,223.10626 67.093416,223.07433 80.023456,218.0455 C 93.791555,206.38503 97.910826,192.15662 113.36656,203.87468 C 118.67631,210.3273 116.88898,219.14362 103.95306,228.53673 C 93.257101,232.31627 86.183958,242.84978 95.027854,250.55503 C 103.74328,253.38041 112.81189,254.4398 120.03518,264.72585 C 135.17862,287.37212 148.95399,300.44195 162.54765,312.23978 C 169.38559,320.79697 175.38348,329.63419 177.55204,339.74784 C 181.50054,356.3561 192.57497,353.96186 205.89368,345.58289 C 219.61635,331.67081 219.83806,313.56245 245.07184,324.74345 C 254.73885,331.93254 257.20031,340.52084 235.0689,348.08362 C 216.92556,356.04433 209.86703,365.04315 223.39882,373.09095 C 245.2917,377.57087 253.9458,362.00576 266.39957,383.33803 C 277.22526,408.7861 293.93632,403.33597 310.92447,396.43113 C 335.51326,389.03104 359.12266,361.06394 385.11288,383.09388 C 396.58327,393.09681 394.69071,401.92089 395.60411,411.92382 C 393.78957,425.11486 403.99166,434.75453 415.2647,416.43699 C 420.44026,397.51607 413.14983,397.06976 429.2925,385.59462 C 447.84108,377.64295 493.07329,388.72471 469.30423,414.76983 C 454.25216,429.79725 437.02731,443.6643 448.46479,462.28376 C 454.22072,470.79939 462.99803,467.65169 467.63707,458.94945 C 469.50696,447.02774 478.03099,445.08725 485.97578,442.2779 C 516.26898,405.20182 557.64478,404.85942 547.66053,431.44139 C 542.94452,442.62841 501.72215,446.77757 495.14514,492.29256 C 492.944,501.01137 502.32541,521.75335 519.31889,487.29109 C 525.3298,476.26413 540.34113,461.09596 560.16419,478.95532 C 562.32908,487.27766 569.85435,494.86853 581.47559,508.82401 C 585.00142,513.05803 584.07556,518.33205 591.84015,524.80209 C 599.60428,539.163 575.32502,530.32729 591.00657,550.64299 C 596.76587,558.96039 600.6206,567.45094 589.33941,577.31748 C 566.25441,598.27716 570.94577,606.22305 593.5073,621.4971 C 609.61179,644.33578 623.07002,637.99159 618.51463,667.34387 C 618.00225,673.42586 616.71551,685.49677 632.68545,678.3234 C 643.01926,677.02985 654.66334,674.52683 645.18912,691.51762 C 639.09201,694.86089 635.36003,701.60117 653.0366,703.18771 C 665.31854,700.36123 661.21165,727.3077 682.84314,713.78007 C 693.86234,703.99745 708.32791,693.22104 705.20671,724.02715 C 701.86143,738.94843 708.33018,745.36423 728.54688,739.86513 C 744.61537,738.32705 759.90646,737.21858 745.21844,764.87246 C 736.37798,786.43963 742.88561,790.10069 752.72064,789.87979 C 757.75039,790.27197 767.75983,782.83894 762.72357,799.04914 C 763.17099,803.45405 762.77233,808.98705 767.72503,807.38492 C 773.46653,802.04789 779.59106,802.74738 786.89732,811.55281 C 793.85645,823.55964 808.26653,815.69728 819.40685,816.55427 C 829.67943,814.90916 831.7388,807.39303 842.74702,805.71776 C 839.20667,816.95372 845.74648,820.12556 857.89445,818.81086 C 860.82184,816.63805 863.74923,812.70072 866.67663,821.06744 C 867.23899,823.64969 867.85204,826.21167 876.09013,825.72363 C 878.73263,824.20391 880.49163,820.0337 886.09306,827.39078 C 891.70804,826.11707 896.15,822.49733 907.76608,833.22583 C 918.60259,841.84324 929.4391,842.95913 940.27561,847.39665 C 942.77634,850.67389 945.27708,850.47001 947.77781,850.73096 C 954.20863,850.06566 952.90488,853.69735 952.53513,856.81015 C 953.22021,858.78164 952.842,861.17846 957.23176,861.66808 C 961.22421,863.33967 961.77221,865.84013 960.76833,868.74123 C 958.76702,875.62246 965.24845,881.44335 969.02033,887.60294 L 984.9349,920.61093 C 993.11446,934.71071 985.52634,952.95788 998.49175,963.04977 C 1000.1087,963.44473 1016.777,970.07398 1022.5679,986.35738 C 1029.8654,1006.8774 1050.8875,1006.5267 1050.7898,1031.9356"
         style="fill:none;fill-rule:evenodd;stroke:#0097ce;stroke-width:5;stroke-linecap:butt;stroke-linejoin:miter;stroke-miterlimit:4;stroke-dasharray:none;stroke-opacity:1" />
      <path
         sodipodi:nodetypes="ccccccccccccccccccc"
         id="path2360"
         d="M 425.21707,388.49118 C 426.68016,378.62266 426.16044,376.71143 419.08362,371.85305 C 414.26594,368.27739 412.96318,367.11358 411.42105,361.83276 C 408.4887,349.98652 418.46903,349.69223 422.03076,358.2962 C 425.7517,365.13467 430.10999,367.08683 436.17704,355.93848 C 437.41757,347.42888 442.61467,344.83651 446.78675,338.84506 C 452.68953,329.95166 456.89694,333.63463 465.64846,332.95077 C 490.29441,335.67995 478.99688,329.1798 485.98374,322.34106 C 488.16917,316.80069 487.36009,309.7075 488.91096,304.36126 C 489.92205,295.80678 493.26632,285.72966 503.37188,286.97535 C 506.75571,286.28705 514.91059,286.86642 521.64417,278.13393 C 528.88965,266.92607 538.31094,274.21263 546.98959,275.18678 C 555.42653,279.00698 559.28614,274.23313 562.31473,266.34536 C 561.69639,252.3833 561.62972,238.87556 574.1033,235.69508 C 586.69357,235.45704 590.90783,226.00539 595.91215,217.4228 C 600.25165,208.35637 602.08649,197.06357 613.00557,193.84566 C 619.29497,193.61896 619.07036,185.7731 622.3597,181.21131 C 624.6837,176.81294 624.9062,175.58036 629.45774,173.15623 C 637.65626,171.04882 639.25472,164.96314 639.07099,160.48274"
         style="fill:none;fill-opacity:1;fill-rule:evenodd;stroke:#0097ce;stroke-width:3.5;stroke-linecap:butt;stroke-linejoin:miter;stroke-miterlimit:4;stroke-dasharray:none;stroke-opacity:1" />
      <path
         sodipodi:nodetypes="ccccccccccccccccccccccccccccccccccccccccccccc"
         id="path3331"
         d="M 577.63987,505.06387 C 581.99127,507.09565 585.19685,509.58576 597.09101,508.60044 C 609.22591,508.04209 609.01025,515.71745 612.41614,520.97844 C 624.95653,540.66052 634.50288,531.29177 633.63557,520.97844 C 633.97789,509.09466 626.30957,513.23216 622.43643,509.7793 C 610.47846,509.52029 609.72078,503.27622 615.95272,498.58016 C 621.59911,493.57553 634.06552,502.22539 631.86728,490.91759 C 628.67198,482.90965 631.16083,478.3122 643.65585,479.71845 C 650.4995,482.2066 654.65091,479.31029 658.39156,475.59245 C 664.44374,471.47 670.82085,468.97224 678.43213,472.64531 C 687.28844,474.84377 689.55814,475.3114 696.11498,468.51931 C 708.88593,458.81734 721.65688,461.91241 734.42783,460.85674 C 755.95504,453.82328 748.60114,439.30056 740.91154,443.17389 C 728.22981,447.75593 718.93232,439.98024 731.48069,430.20646 C 741.41935,424.21723 757.74387,438.74754 752.70011,420.18618 C 749.8153,410.78704 757.90086,404.61119 764.48868,414.88132 C 764.52579,427.37471 762.1039,436.39203 773.91954,439.04789 C 778.49791,445.42662 783.0242,451.46689 784.52925,437.86903 C 784.27304,424.97862 789.58675,423.22804 792.19182,416.06018 C 801.29208,397.14549 801.81463,412.54169 805.15924,416.64961 C 817.68542,424.36435 819.52159,409.82473 828.73638,407.80818 C 833.10391,393.25417 824.29638,394.51024 821.66324,388.35704 C 816.97778,386.4019 812.95583,364.86535 824.61038,371.85305 C 827.41818,376.53027 832.23231,376.60255 830.60579,370.84683 C 829.03194,366.18112 838.96428,362.69089 838.16724,372.44248 C 833.43862,384.87473 854.23263,380.96834 855.85009,373.62133 C 863.46437,360.64835 872.81429,363.89036 872.94351,373.0319 C 874.92854,384.01284 878.7766,396.60839 864.69152,393.6619 C 856.2015,388.19309 846.03651,405.89242 865.28094,406.62933 L 892.98408,409.57647 C 902.92814,411.42689 914.67301,415.97854 918.3295,408.39761 C 923.57271,398.83833 930.89161,402.77156 931.88636,388.35704 C 929.30832,373.10689 954.02366,375.947 946.03264,390.12533 C 939.94925,395.63891 941.03201,416.44327 951.92692,397.7879 C 954.11372,391.73548 958.85351,389.51255 965.48378,390.12533 C 974.27837,389.17808 972.82241,395.91873 973.14635,401.32447 C 969.58073,412.15833 984.27669,411.44692 982.5772,402.50333 C 980.37333,391.64644 990.01658,392.89928 1002.0283,393.07247 C 1008.2064,393.44365 1015.2332,395.51213 1014.9958,383.05219 C 1012.625,371.86061 1018.047,372.9148 1023.2478,373.62133 C 1032.2618,377.65004 1030.3345,367.0902 1029.7315,358.29619 C 1028.5151,336.8168 1043.9962,342.85718 1054.4875,342.97105 C 1062.9897,342.09805 1074.7802,345.24404 1073.9386,332.95077 C 1073.6058,328.16618 1083.3841,321.29759 1089.9519,322.37921 C 1104.892,325.08232 1109.1552,319.53444 1116.5395,319.88046"
         style="fill:none;fill-rule:evenodd;stroke:#0097ce;stroke-width:3.5;stroke-linecap:butt;stroke-linejoin:miter;stroke-miterlimit:4;stroke-dasharray:none;stroke-opacity:1" />
      <path
         id="path4302"
         d="M 841.91347,805.71775 C 844.42653,802.34535 851.13781,801.77176 861.50254,803.63381 C 872.39833,804.88186 873.73938,809.39249 889.0106,806.55133 C 902.04673,809.30667 906.32709,803.30624 914.43472,801.13308 C 934.87949,795.99268 942.77637,790.85229 956.94719,785.71189 C 962.08476,781.94949 968.70849,784.13173 974.86911,784.46152 C 981.67666,787.58261 986.81705,781.89285 990.29029,779.46006 C 991.48332,774.06607 995.38148,774.08232 999.87644,775.29217 C 1009.7743,774.6821 1000.7241,764.42127 1009.4626,763.20529 C 1017.7691,758.11144 1017.3343,751.85631 1030.302,752.36878 C 1042.25,754.5917 1043.6393,755.70304 1046.9736,748.20089 C 1052.3089,741.73446 1059.6913,749.27015 1061.5612,735.69723 C 1059.3142,730.4241 1067.4435,726.7878 1068.6466,732.77971 C 1068.9791,735.4238 1074.6165,737.65989 1074.0649,731.94613 C 1073.7163,725.41397 1078.5214,726.83133 1081.5671,729.44539 C 1085.5858,733.64966 1090.4884,729.89424 1091.9868,725.6943 C 1093.0689,721.57986 1096.0727,720.02781 1099.489,719.02567 C 1103.9763,718.71717 1107.6296,716.1651 1108.2084,713.51151 C 1108.493,708.73022 1115.0801,710.74833 1118.466,709.85632"
         style="fill:none;fill-rule:evenodd;stroke:#0097ce;stroke-width:3.5;stroke-linecap:butt;stroke-linejoin:miter;stroke-miterlimit:4;stroke-dasharray:none;stroke-opacity:1"
         sodipodi:nodetypes="ccccccccccccccccccc" />
      <path
         sodipodi:nodetypes="cccccccccccccc"
         id="path6243"
         d="M 765.37283,808.03009 C 770.70187,809.33197 774.57975,811.74032 775.98254,815.39795 C 780.34126,827.85511 772.72957,827.14482 770.08825,831.90194 C 764.68139,835.33745 767.04664,839.66558 763.89925,841.3328 C 758.88379,844.36755 751.13594,837.22207 742.67983,846.93237 C 738.69342,850.82569 736.94781,853.65948 724.11283,853.12137 C 711.68266,853.22057 715.418,864.43357 714.68198,872.5725 C 720.5882,893.55432 715.54896,902.76249 721.16569,908.52764 C 724.38052,915.13661 722.97878,926.95159 727.35469,932.6942 C 730.7039,938.78804 724.02268,943.98938 732.65955,957.4502 C 738.22168,963.55792 745.41329,969.46196 745.03754,976.31191 C 741.82015,988.58196 744.52247,995.87031 750.04769,998.71019 C 752.17939,1000.9108 755.24242,1002.3131 752.11068,1009.0252 C 747.56995,1017.8666 745.05943,1026.7081 744.44812,1035.5495"
         style="fill:none;fill-rule:evenodd;stroke:#0097ce;stroke-width:3.5;stroke-linecap:butt;stroke-linejoin:miter;stroke-miterlimit:4;stroke-dasharray:none;stroke-opacity:1" />
    </g>
  </g>
  <g
     inkscape:groupmode="layer"
     id="layer2"
     inkscape:label="Légende"
     style="display:inline"
     transform="translate(-52.487877,-186.85774)">
    <g
       id="g9286"
       transform="matrix(2.148034,0,0,2.1887227,1140.5258,240.90742)" />
    <text
       xml:space="preserve"
       style="font-size:18px;font-style:normal;font-variant:normal;font-weight:normal;font-stretch:normal;text-align:start;line-height:119.00000572%;writing-mode:lr-tb;text-anchor:start;fill:#000000;fill-opacity:1;stroke:none;stroke-width:1px;stroke-linecap:butt;stroke-linejoin:miter;stroke-opacity:1;font-family:Bitstream Vera Sans"
       x="189.82214"
       y="394.39905"
       id="text9167"
       transform="scale(0.9906613,1.0094267)"
       sodipodi:linespacing="119.00001%"><tspan
         sodipodi:role="line"
         x="189.82214"
         y="394.39905"
         id="tspan9171">Mantes-la-Jolie</tspan></text>
    <text
       xml:space="preserve"
       style="font-size:26.01939583px;font-style:normal;font-weight:normal;fill:#000000;fill-opacity:1;stroke:none;stroke-width:1px;stroke-linecap:butt;stroke-linejoin:miter;stroke-opacity:1;font-family:Bitstream Vera Sans"
       x="790.80536"
       y="651.0744"
       id="text9193"
       transform="scale(0.9906613,1.0094267)"><tspan
         sodipodi:role="line"
         id="tspan9195"
         x="790.80536"
         y="651.0744">Seine-et-Marne</tspan></text>
    <text
       xml:space="preserve"
       style="font-size:18px;font-style:normal;font-variant:normal;font-weight:normal;font-stretch:normal;text-align:start;line-height:119.00000572%;writing-mode:lr-tb;text-anchor:start;fill:#000000;fill-opacity:1;stroke:none;stroke-width:1px;stroke-linecap:butt;stroke-linejoin:miter;stroke-opacity:1;font-family:Bitstream Vera Sans"
       x="242.66206"
       y="637.94714"
       id="text9185"
       transform="scale(0.9906613,1.0094267)"
       sodipodi:linespacing="119.00001%"><tspan
         sodipodi:role="line"
         x="242.66206"
         y="637.94714"
         id="tspan9189">Rambouillet</tspan></text>
    <path
       sodipodi:type="arc"
       style="fill:#ffffff;fill-opacity:1;stroke:#000000;stroke-width:1;stroke-miterlimit:4;stroke-dasharray:none;stroke-opacity:1"
       id="path8169"
       sodipodi:cx="-401.03055"
       sodipodi:cy="24.687513"
       sodipodi:rx="4.0406103"
       sodipodi:ry="4.5456862"
       d="M -396.98994 24.687513 A 4.0406103 4.5456862 0 1 1  -405.07116,24.687513 A 4.0406103 4.5456862 0 1 1  -396.98994 24.687513 z"
       transform="matrix(1.725737,0,0,1.4707021,1122.9972,439.99167)" />
    <text
       xml:space="preserve"
       style="font-size:18px;font-style:normal;font-variant:normal;font-weight:normal;font-stretch:normal;text-align:start;line-height:119.00000572%;writing-mode:lr-tb;text-anchor:start;fill:#000000;fill-opacity:1;stroke:none;stroke-width:1px;stroke-linecap:butt;stroke-linejoin:miter;stroke-opacity:1;font-family:Bitstream Vera Sans"
       x="288.75333"
       y="465.9653"
       id="text9350"
       transform="scale(0.9906613,1.0094267)"
       sodipodi:linespacing="119.00001%"><tspan
         sodipodi:role="line"
         id="tspan12485"
         x="288.75333"
         y="465.9653">Saint-Germain</tspan><tspan
         sodipodi:role="line"
         id="tspan12487"
         x="288.75333"
         y="487.3853">          -en-Laye</tspan><tspan
         sodipodi:role="line"
         id="tspan12489"
         x="288.75333"
         y="508.8053"></tspan></text>
    <text
       xml:space="preserve"
       style="font-size:26.01939583px;font-style:normal;font-weight:normal;fill:#000000;fill-opacity:1;stroke:none;stroke-width:1px;stroke-linecap:butt;stroke-linejoin:miter;stroke-opacity:1;font-family:Bitstream Vera Sans"
       x="351.94131"
       y="326.01367"
       id="text2644"
       transform="scale(0.9906613,1.0094267)"><tspan
         sodipodi:role="line"
         id="tspan2646"
         x="351.94131"
         y="326.01367">Val-d'Oise</tspan></text>
    <text
       transform="scale(0.9906613,1.0094267)"
       id="text2676"
       y="452.60583"
       x="578.50391"
       style="font-size:22px;font-style:normal;font-variant:normal;font-weight:normal;font-stretch:normal;text-align:start;line-height:100%;writing-mode:lr-tb;text-anchor:start;fill:#000000;fill-opacity:1;stroke:none;stroke-width:1px;stroke-linecap:butt;stroke-linejoin:miter;stroke-opacity:1;font-family:Bitstream Vera Sans"
       xml:space="preserve"
       sodipodi:linespacing="100%"><tspan
         y="452.60583"
         x="578.50391"
         id="tspan2678"
         sodipodi:role="line">Seine-</tspan><tspan
         y="474.60583"
         x="578.50391"
         sodipodi:role="line"
         id="tspan2741">Saint-Denis</tspan></text>
    <text
       xml:space="preserve"
       style="font-size:18px;font-style:normal;font-variant:normal;font-weight:normal;font-stretch:normal;text-align:start;line-height:119.00000572%;writing-mode:lr-tb;text-anchor:start;fill:#000000;fill-opacity:1;stroke:none;stroke-width:1px;stroke-linecap:butt;stroke-linejoin:miter;stroke-opacity:1;font-family:Bitstream Vera Sans"
       x="365.24509"
       y="551.52454"
       id="text2652"
       transform="scale(0.9906613,1.0094267)"
       sodipodi:linespacing="119.00001%"><tspan
         sodipodi:role="line"
         id="tspan2654"
         x="365.24509"
         y="551.52454">Versailles</tspan></text>
    <text
       xml:space="preserve"
       style="font-size:22px;font-style:normal;font-variant:normal;font-weight:normal;font-stretch:normal;text-align:start;line-height:100%;writing-mode:lr-tb;text-anchor:start;fill:#000000;fill-opacity:1;stroke:none;stroke-width:1px;stroke-linecap:butt;stroke-linejoin:miter;stroke-opacity:1;font-family:Bitstream Vera Sans"
       x="587.62659"
       y="557.26031"
       id="text2660"
       transform="scale(0.9906613,1.0094267)"
       sodipodi:linespacing="100%"><tspan
         sodipodi:role="line"
         id="tspan2662"
         x="587.62659"
         y="557.26031">Val-de</tspan><tspan
         sodipodi:role="line"
         x="587.62659"
         y="579.26031"
         id="tspan2739">-Marne</tspan></text>
    <text
       xml:space="preserve"
       style="font-size:22px;font-style:normal;font-variant:normal;font-weight:normal;font-stretch:normal;text-align:start;line-height:100%;writing-mode:lr-tb;text-anchor:start;fill:#000000;fill-opacity:1;stroke:none;stroke-width:1px;stroke-linecap:butt;stroke-linejoin:miter;stroke-opacity:1;font-family:Bitstream Vera Sans"
       x="461.077"
       y="490.43747"
       id="text2668"
       transform="scale(0.9906613,1.0094267)"
       sodipodi:linespacing="100%"><tspan
         sodipodi:role="line"
         id="tspan2670"
         x="461.077"
         y="490.43747">Hauts-</tspan><tspan
         sodipodi:role="line"
         x="461.077"
         y="512.43747"
         id="tspan2716">de-</tspan><tspan
         sodipodi:role="line"
         x="461.077"
         y="534.43747"
         id="tspan2726">Seine</tspan></text>
    <text
       transform="scale(0.9906613,1.0094267)"
       id="text2636"
       y="504.40182"
       x="523.46832"
       style="font-size:24px;font-style:normal;font-variant:normal;font-weight:normal;font-stretch:normal;text-align:start;line-height:125%;writing-mode:lr-tb;text-anchor:start;fill:#000000;fill-opacity:1;stroke:none;stroke-width:1px;stroke-linecap:butt;stroke-linejoin:miter;stroke-opacity:1;font-family:Bitstream Vera Sans"
       xml:space="preserve"
       sodipodi:linespacing="125%"><tspan
         y="504.40182"
         x="523.46832"
         id="tspan2638"
         sodipodi:role="line">Paris</tspan></text>
    <text
       transform="scale(0.9906613,1.0094267)"
       id="text2688"
       y="734.37122"
       x="465.79755"
       style="font-size:26.01939583px;font-style:normal;font-weight:normal;fill:#000000;fill-opacity:1;stroke:none;stroke-width:1px;stroke-linecap:butt;stroke-linejoin:miter;stroke-opacity:1;font-family:Bitstream Vera Sans"
       xml:space="preserve"><tspan
         y="734.37122"
         x="465.79755"
         id="tspan2690"
         sodipodi:role="line">Essonne</tspan></text>
    <text
       xml:space="preserve"
       style="font-size:26.01939583px;font-style:normal;font-variant:normal;font-weight:bold;font-stretch:normal;text-align:start;line-height:125%;writing-mode:lr-tb;text-anchor:start;fill:#000000;fill-opacity:1;stroke:none;stroke-width:1px;stroke-linecap:butt;stroke-linejoin:miter;stroke-opacity:1;font-family:Bitstream Vera Sans"
       x="223.59427"
       y="516.98682"
       id="text12457"
       transform="scale(0.9906613,1.0094267)"
       sodipodi:linespacing="125%"><tspan
         sodipodi:role="line"
         id="tspan12459"
         x="223.59427"
         y="516.98682">Yvelines</tspan></text>
    <path
       sodipodi:type="arc"
       style="fill:#ffffff;fill-opacity:1;stroke:#000000;stroke-width:1;stroke-miterlimit:4;stroke-dasharray:none;stroke-opacity:1"
       id="path12481"
       sodipodi:cx="-401.03055"
       sodipodi:cy="24.687513"
       sodipodi:rx="4.0406103"
       sodipodi:ry="4.5456862"
       d="M -396.98994 24.687513 A 4.0406103 4.5456862 0 1 1  -405.07116,24.687513 A 4.0406103 4.5456862 0 1 1  -396.98994 24.687513 z"
       transform="matrix(1.725737,0,0,1.4707021,1137.8654,497.1572)" />
    <path
       sodipodi:type="arc"
       style="fill:#ffffff;fill-opacity:1;stroke:#000000;stroke-width:1;stroke-miterlimit:4;stroke-dasharray:none;stroke-opacity:1"
       id="path12483"
       sodipodi:cx="-401.03055"
       sodipodi:cy="24.687513"
       sodipodi:rx="4.0406103"
       sodipodi:ry="4.5456862"
       d="M -396.98994 24.687513 A 4.0406103 4.5456862 0 1 1  -405.07116,24.687513 A 4.0406103 4.5456862 0 1 1  -396.98994 24.687513 z"
       transform="matrix(1.725737,0,0,1.4707021,1019.4327,619.69138)" />
    <path
       transform="matrix(1.725737,0,0,1.4707021,933.29993,373.34128)"
       d="M -396.98994 24.687513 A 4.0406103 4.5456862 0 1 1  -405.07116,24.687513 A 4.0406103 4.5456862 0 1 1  -396.98994 24.687513 z"
       sodipodi:ry="4.5456862"
       sodipodi:rx="4.0406103"
       sodipodi:cy="24.687513"
       sodipodi:cx="-401.03055"
       id="path12479"
       style="fill:#ffffff;fill-opacity:1;stroke:#000000;stroke-width:1;stroke-miterlimit:4;stroke-dasharray:none;stroke-opacity:1"
       sodipodi:type="arc" />
  </g>
</svg>
